Coordinates
version=1
nRows=40
nColumns=30
inDegrees=yes

Units are S.I. units (second, meters, Newtons, ...)
Angles are in degrees.

endheader
time	floatyaw	floatroll	floatpitch	floatx	floaty	floatz	pro_sup_l	deviation_l	flexion_l	cmc_flexion_l	cmc_abduction_l	mp_flexion_l	ip_flexion_l	2mcp_flexion_l	2mcp_abduction_l	2pm_flexion_l	2md_flexion_l	3mcp_flexion_l	3mcp_abduction_l	3pm_flexion_l	3md_flexion_l	4mcp_flexion_l	4mcp_abduction_l	4pm_flexion_l	4md_flexion_l	5mcp_flexion_l	5mcp_abduction_l	5pm_flexion_l	5md_flexion_l
-0.995000	-0.845308	-4.283240	94.249796	-0.007011	-0.268638	-0.000880	89.621141	-0.737512	-1.889322	26.203965	3.173203	-18.304182	-33.097899	18.457800	5.349195	33.149646	20.718166	8.220754	3.813408	35.437026	21.448756	-1.772348	-3.284954	52.461691	33.216100	-20.248791	-8.825332	60.200453	48.821427
-0.985000	-0.845308	-4.283240	94.249796	-0.007048	-0.268641	-0.000842	89.651277	-0.742538	-1.901261	26.158091	3.150558	-18.294386	-33.038226	18.493933	5.339120	33.095102	20.670443	8.273634	3.810972	35.372732	21.385076	-1.705993	-3.270836	52.377597	33.165746	-20.174245	-8.825496	60.065162	48.816889
-0.975000	-0.845308	-4.283240	94.249796	-0.007088	-0.268640	-0.000812	89.677578	-0.745303	-1.911364	26.106194	3.127469	-18.277604	-32.958330	18.527950	5.334469	33.038648	20.618213	8.326506	3.810072	35.309314	21.321477	-1.647773	-3.259221	52.297498	33.123629	-20.112124	-8.830420	59.921435	48.846437
-0.965000	-0.845308	-4.283240	94.249796	-0.007125	-0.268633	-0.000791	89.694297	-0.747755	-1.915561	26.050603	3.111737	-18.257329	-32.868290	18.548164	5.335167	32.994960	20.572089	8.366704	3.810357	35.257875	21.268145	-1.613782	-3.253020	52.238257	33.099163	-20.072753	-8.839488	59.782994	48.905367
-0.955000	-0.845308	-4.283240	94.249796	-0.007157	-0.268622	-0.000774	89.701593	-0.751055	-1.912944	25.999894	3.104871	-18.238752	-32.784705	18.549424	5.340918	32.971507	20.541684	8.392155	3.811164	35.219888	21.229408	-1.606764	-3.252270	52.203982	33.096482	-20.057657	-8.852945	59.657296	48.986078
-0.945000	-0.845308	-4.283240	94.249796	-0.007183	-0.268607	-0.000759	89.705384	-0.754924	-1.906032	25.965103	3.100768	-18.226619	-32.722536	18.535494	5.351134	32.965216	20.530834	8.411218	3.812209	35.187476	21.202936	-1.615777	-3.254578	52.184740	33.112792	-20.060811	-8.871537	59.544839	49.080332
-0.935000	-0.845308	-4.283240	94.249796	-0.007206	-0.268593	-0.000742	89.713453	-0.758068	-1.899141	25.954579	3.089510	-18.223618	-32.689529	18.515925	5.364611	32.965858	20.536787	8.435643	3.813873	35.149786	21.183276	-1.623948	-3.256963	52.164514	33.139889	-20.073697	-8.895109	59.443355	49.179886
-0.925000	-0.845308	-4.283240	94.249796	-0.007226	-0.268581	-0.000723	89.730351	-0.759192	-1.895927	25.970195	3.064439	-18.229723	-32.685508	18.500124	5.379351	32.963590	20.553271	8.472077	3.816869	35.101166	21.166706	-1.618847	-3.257790	52.132984	33.168126	-20.089893	-8.921392	59.353528	49.276151
-0.915000	-0.845308	-4.283240	94.249796	-0.007244	-0.268575	-0.000702	89.754076	-0.757821	-1.897512	26.006240	3.028089	-18.242467	-32.704516	18.492712	5.392778	32.955366	20.574531	8.517800	3.821579	35.045679	21.153751	-1.599188	-3.257566	52.093143	33.190724	-20.106690	-8.946204	59.281750	49.360289
-0.905000	-0.845308	-4.283240	94.249796	-0.007254	-0.268572	-0.000685	89.776608	-0.754492	-1.902214	26.051706	2.992725	-18.258458	-32.737221	18.492634	5.402441	32.946290	20.597513	8.562790	3.827616	34.995257	21.148075	-1.574297	-3.258197	52.059700	33.206111	-20.123936	-8.965134	59.238097	49.424370
-0.895000	-0.845308	-4.283240	94.249796	-0.007253	-0.268571	-0.000679	89.788181	-0.750375	-1.906950	26.095479	2.974735	-18.275909	-32.773144	18.495672	5.407082	32.945590	20.621483	8.595977	3.834003	34.962978	21.153252	-1.557060	-3.261306	52.049352	33.217127	-20.141767	-8.975443	59.231062	49.463062
-0.885000	-0.845308	-4.283240	94.249796	-0.007238	-0.268565	-0.000687	89.782731	-0.746793	-1.909315	26.131592	2.986265	-18.296358	-32.803268	18.498053	5.407549	32.960054	20.646439	8.611327	3.839819	34.955745	21.170154	-1.555097	-3.266903	52.069307	33.227902	-20.158911	-8.976711	59.262247	49.474905
-0.875000	-0.845308	-4.283240	94.249796	-0.007210	-0.268555	-0.000710	89.761231	-0.744832	-1.908838	26.160796	3.028774	-18.323333	-32.822594	18.498488	5.406763	32.989176	20.672163	8.610017	3.844778	34.970731	21.196765	-1.566085	-3.273489	52.111697	33.240697	-20.172310	-8.969877	59.324118	49.462635
-0.865000	-0.845308	-4.283240	94.249796	-0.007175	-0.268540	-0.000740	89.731274	-0.744932	-1.906675	26.187245	3.091584	-18.358070	-32.831091	18.497540	5.408456	33.025141	20.698586	8.597949	3.849265	34.997656	21.230151	-1.580193	-3.279591	52.157642	33.254843	-20.177821	-8.955654	59.402449	49.432629
-0.855000	-0.845308	-4.283240	94.249796	-0.007140	-0.268524	-0.000772	89.703471	-0.746462	-1.904228	26.212932	3.155956	-18.395443	-32.831815	18.495489	5.415254	33.057634	20.726550	8.580952	3.853856	35.025279	21.268662	-1.587519	-3.285455	52.188406	33.268303	-20.171836	-8.933805	59.482785	49.393765
-0.845000	-0.845308	-4.283240	94.249796	-0.007109	-0.268510	-0.000800	89.686703	-0.747709	-1.901897	26.233982	3.202981	-18.423635	-32.826804	18.490978	5.427244	33.080088	20.757619	8.561210	3.858700	35.047897	21.312485	-1.585181	-3.293265	52.196439	33.280415	-20.153841	-8.903971	59.557649	49.355866
-0.835000	-0.845308	-4.283240	94.249796	-0.007083	-0.268497	-0.000823	89.684710	-0.746630	-1.898884	26.241337	3.221699	-18.428432	-32.813296	18.481791	5.441969	33.092966	20.792579	8.537233	3.863192	35.067572	21.361959	-1.579197	-3.305398	52.189182	33.293352	-20.128691	-8.867515	59.629861	49.327661
-0.825000	-0.845308	-4.283240	94.249796	-0.007061	-0.268486	-0.000845	89.695864	-0.742109	-1.894126	26.225293	3.213255	-18.399705	-32.783132	18.467139	5.455887	33.101836	20.829440	8.507097	3.866098	35.090591	21.414600	-1.580009	-3.321861	52.183216	33.310729	-20.106247	-8.828960	59.708796	49.314537
-0.815000	-0.845308	-4.283240	94.249796	-0.007041	-0.268476	-0.000865	89.715842	-0.735019	-1.887502	26.181027	3.189008	-18.336451	-32.726304	18.449543	5.466465	33.111685	20.862324	8.472399	3.866102	35.120582	21.462776	-1.594844	-3.338935	52.192614	33.333927	-20.097312	-8.795858	59.800862	49.316931
-0.805000	-0.845308	-4.283240	94.249796	-0.007023	-0.268467	-0.000880	89.740808	-0.728479	-1.880247	26.111855	3.164168	-18.247875	-32.636763	18.434833	5.473611	33.121404	20.882369	8.439826	3.862567	35.153127	21.494305	-1.622131	-3.350343	52.219003	33.358799	-20.107864	-8.776818	59.900153	49.330275
-0.795000	-0.845308	-4.283240	94.249796	-0.007012	-0.268460	-0.000877	89.768420	-0.727137	-1.874126	26.028487	3.150990	-18.150165	-32.517001	18.430316	5.479585	33.122006	20.880789	8.419054	3.856212	35.175737	21.496848	-1.651364	-3.350500	52.249295	33.375615	-20.134892	-8.778477	59.985729	49.346661
-0.785000	-0.845308	-4.283240	94.249796	-0.007011	-0.268453	-0.000840	89.796041	-0.735701	-1.869955	25.944660	3.155250	-18.060595	-32.378493	18.442648	5.487433	33.099514	20.852719	8.418636	3.849271	35.173251	21.464145	-1.667817	-3.337744	52.261695	33.373032	-20.165926	-8.802975	60.027066	49.357821
-0.775000	-0.845308	-4.283240	94.249796	-0.007021	-0.268443	-0.000759	89.817900	-0.757252	-1.866638	25.871263	3.177305	-17.991757	-32.237756	18.476930	5.498878	33.040659	20.799687	8.442960	3.844825	35.135101	21.400132	-1.658517	-3.315239	52.235652	33.343974	-20.182452	-8.847330	59.993773	49.358571
-0.765000	-0.845308	-4.283240	94.249796	-0.007036	-0.268425	-0.000632	89.823945	-0.791892	-1.861512	25.811914	3.215883	-17.948544	-32.110772	18.536897	5.512920	32.938527	20.729414	8.491930	3.845488	35.060208	21.318146	-1.616005	-3.288923	52.160143	33.289807	-20.166233	-8.904874	59.864791	49.349227
-0.755000	-0.845308	-4.283240	94.249796	-0.007043	-0.268396	-0.000470	89.802197	-0.836211	-1.851868	25.762318	3.270994	-17.928794	-32.009102	18.624451	5.526016	32.796011	20.653378	8.562179	3.852166	34.957544	21.235932	-1.538941	-3.264120	52.036997	33.220257	-20.106665	-8.967486	59.635359	49.335404
-0.745000	-0.845308	-4.283240	94.249796	-0.007027	-0.268358	-0.000292	89.744116	-0.883833	-1.836623	25.713581	3.343554	-17.926226	-31.938760	18.737307	5.533852	32.626306	20.583651	8.647620	3.863743	34.843195	21.169756	-1.431174	-3.243374	51.879442	33.149343	-20.006412	-9.027203	59.321693	49.324743
-0.735000	-0.845308	-4.283240	94.249796	-0.006979	-0.268312	-0.000117	89.650289	-0.926813	-1.817040	25.657315	3.432534	-17.933300	-31.900538	18.866238	5.533717	32.450507	20.530324	8.739144	3.877960	34.735731	21.130698	-1.301164	-3.226831	51.708087	33.089988	-19.882044	-9.076985	58.961801	49.321892
-0.725000	-0.845308	-4.283240	94.249796	-0.006891	-0.268261	0.000049	89.533077	-0.957157	-1.796136	25.589734	3.532823	-17.942711	-31.890497	18.995468	5.526063	32.292646	20.499947	8.825728	3.892839	34.651123	21.123879	-1.161533	-3.214228	51.546306	33.050272	-19.757212	-9.111381	58.609175	49.324364
-0.715000	-0.845308	-4.283240	94.249796	-0.006762	-0.268204	0.000206	89.414079	-0.967925	-1.777354	25.513009	3.636295	-17.948026	-31.900773	19.108032	5.514391	32.173274	20.494652	8.898562	3.907541	34.598172	21.149170	-1.026884	-3.206396	51.415553	33.032514	-19.649833	-9.127553	58.318106	49.322079
-0.705000	-0.845308	-4.283240	94.249796	-0.006593	-0.268132	0.000365	89.316994	-0.954115	-1.763234	25.433813	3.735441	-17.944702	-31.921710	19.193332	5.503559	32.103995	20.511581	8.956040	3.922101	34.576103	21.201740	-0.909485	-3.204872	51.330694	33.034529	-19.560715	-9.126227	58.125090	49.302117
-0.695000	-0.845308	-4.283240	94.249796	-0.006384	-0.268035	0.000530	89.259062	-0.913759	-1.754515	25.360198	3.826368	-17.931634	-31.945457	19.251436	5.497418	32.085528	20.542788	9.005264	3.936405	34.575961	21.272148	-0.815333	-3.210153	51.296606	33.051721	-19.472794	-9.111533	58.035957	49.257221
-0.685000	-0.845308	-4.283240	94.249796	-0.006138	-0.267904	0.000705	89.245205	-0.849040	-1.749872	25.298258	3.908606	-17.911999	-31.969307	19.291238	5.496977	32.109671	20.576254	9.058008	3.949487	34.585328	21.347042	-0.743785	-3.220450	51.307928	33.079101	-19.363590	-9.089154	58.027324	49.192854
-0.675000	-0.845308	-4.283240	94.249796	-0.005863	-0.267744	0.000890	89.267482	-0.766610	-1.746370	25.249642	3.982295	-17.892135	-31.995731	19.324601	5.500062	32.162825	20.598529	9.123874	3.959878	34.593183	21.411434	-0.691091	-3.232253	51.352220	33.112588	-19.223146	-9.063353	58.062834	49.126652
-0.665000	-0.845308	-4.283240	94.249796	-0.005568	-0.267567	0.001091	89.309823	-0.676365	-1.740387	25.210387	4.045471	-17.878369	-32.027670	19.361103	5.502729	32.228397	20.598583	9.205584	3.966817	34.591541	21.452298	-0.654633	-3.242329	51.414305	33.149117	-19.065132	-9.034602	58.114899	49.078674
-0.655000	-0.845308	-4.283240	94.249796	-0.005269	-0.267392	0.001317	89.355521	-0.588826	-1.728411	25.171182	4.093851	-17.873107	-32.061369	19.406116	5.501755	32.287682	20.571453	9.298959	3.971273	34.573931	21.462388	-0.634338	-3.249517	51.479470	33.185634	-18.923453	-8.999775	58.178271	49.058628
-0.645000	-0.845308	-4.283240	94.249796	-0.004977	-0.267234	0.001578	89.393476	-0.512114	-1.707178	25.118921	4.123753	-17.872219	-32.081827	19.461563	5.496831	32.321324	20.520194	9.395983	3.975775	34.534381	21.443155	-0.630948	-3.255000	51.535694	33.218138	-18.836263	-8.955603	58.266344	49.059864
-0.635000	-0.845308	-4.283240	94.249796	-0.004698	-0.267098	0.001877	89.419703	-0.449886	-1.673122	25.039368	4.137334	-17.865786	-32.064904	19.527381	5.491291	32.313366	20.455483	9.488179	3.982950	34.469970	21.405565	-0.643460	-3.260912	51.576319	33.242096	-18.826097	-8.903805	58.391998	49.064862
-0.625000	-0.845308	-4.283240	94.249796	-0.004424	-0.266973	0.002207	89.433606	-0.401305	-1.621909	24.920620	4.147850	-17.842885	-31.986223	19.603085	5.491049	32.256839	20.392905	9.569880	3.993736	34.385177	21.367251	-0.667020	-3.268281	51.601991	33.254054	-18.885413	-8.854381	58.545105	49.057280
-0.615000	-0.845308	-4.283240	94.249796	-0.004130	-0.266841	0.002558	89.432390	-0.363164	-1.549036	24.756552	4.181339	-17.798651	-31.832885	19.690517	5.502084	32.156685	20.348188	9.642536	4.006592	34.292822	21.345510	-0.690534	-3.275691	51.618107	33.252723	-18.973819	-8.823795	58.682263	49.030426
-0.605000	-0.845308	-4.283240	94.249796	-0.003787	-0.266680	0.002926	89.408522	-0.332863	-1.452052	24.548781	4.271330	-17.739572	-31.611737	19.798408	5.527354	32.026190	20.331216	9.718787	4.018530	34.208947	21.348974	-0.694402	-3.279678	51.627131	33.238603	-19.029635	-8.827768	58.739307	48.986392
